<svg id="visual" viewBox="0 0 960 540" width="960" height="540" xmlns="http://www.w3.org/2000/svg" xmlns:xlink="http://www.w3.org/1999/xlink" version="1.1"><rect width="960" height="540" fill="#200532"></rect><g><g transform="translate(747 7)"><path d="M119.7 -37.3C135.9 10.9 116.5 72.3 74.7 102.6C32.9 133 -31.3 132.2 -73.8 101.4C-116.4 70.5 -137.3 9.6 -121.4 -38.3C-105.5 -86.2 -52.7 -121 -0.5 -120.8C51.8 -120.7 103.5 -85.6 119.7 -37.3Z" stroke="#4f0e86" fill="none" stroke-width="20"></path></g><g transform="translate(680 419)"><path d="M33 -12.2C37.1 2.1 31 18.2 19.6 26.3C8.2 34.5 -8.5 34.6 -20.4 26.4C-32.2 18.2 -39.2 1.6 -35 -12.7C-30.8 -27.1 -15.4 -39.2 -0.5 -39C14.4 -38.8 28.8 -26.4 33 -12.2Z" stroke="#4f0e86" fill="none" stroke-width="20"></path></g><g transform="translate(239 92)"><path d="M73 -25.3C82.2 4.8 68.9 40.6 42.4 60.3C15.9 80 -23.7 83.6 -51.6 64.8C-79.4 46 -95.5 4.9 -84.9 -26.9C-74.4 -58.8 -37.2 -81.3 -2.7 -80.4C31.9 -79.5 63.7 -55.3 73 -25.3Z" stroke="#4f0e86" fill="none" stroke-width="20"></path></g><g transform="translate(223 477)"><path d="M51.7 -16.3C58 2.8 48.1 27.6 30.3 40.2C12.5 52.7 -13 52.9 -30.1 40.7C-47.1 28.5 -55.5 3.9 -49.1 -15.3C-42.6 -34.6 -21.3 -48.3 0.7 -48.5C22.7 -48.8 45.3 -35.4 51.7 -16.3Z" stroke="#4f0e86" fill="none" stroke-width="20"></path></g></g></svg>